:SAMPLES-PER-SECOND 30
:FULLY-SPECIFIED
:DEGREES
155
root  -0.968308 38.2965 -4.28531 -111.136 84.7798 -107.297
RightUpLeg  -21.0176 -18.4814 6.35229
RightLeg  30.354 -3.63207 -2.55266
RightFoot  -4.52497 0.302974 -5.60812
RightToes  0.000482159 0.542163 -0.142577
Spine  15.5568 -2.13601 18.0582
Spine1  12.0709 0.695923 1.34437
HEad  6.70594 -6.59546 -3.09216
LeftShoulder1  8.31903 -12.6402 -44.8992
LeftArm  -2.91403 15.7607 -33.1608
LeftForeArm  34.4309 -30.0272 -4.63789
LeftHand  -0.25398 0.0180481 5.50724
RightShoulder  5.43201 9.30371 36.4208
RightArm  -13.6237 -4.41778 31.1796
RightForeArm  -10.0347 11.2933 6.71136
RightHand  -6.47825 17.0124 -33.096
LeftUpLeg  -4.31287 3.15483 6.9366
LeftLeg  63.0899 1.339 3.42206
LeftFoot  19.97 1.01064 -4.02565
LeftToes  1.06246e-005 4.65854e-005 -8.18502e-006
156
root  0.543759 38.5721 -4.03087 -120.745 84.4613 -116.714
RightUpLeg  -17.8432 -19.7178 5.67606
RightLeg  30.1971 -3.4342 -2.42603
RightFoot  -6.76827 0.166556 -5.30566
RightToes  0.000482159 0.542163 -0.142577
Spine  15.9015 -1.75685 18.6609
Spine1  12.2696 1.30578 1.17292
HEad  7.2221 -8.55574 -1.96739
LeftShoulder1  8.38919 -12.7424 -44.9973
LeftArm  -2.63902 15.7201 -32.9159
LeftForeArm  35.9491 -30.8881 -4.75465
LeftHand  -0.25398 0.0180481 5.50724
RightShoulder  5.53414 9.37983 36.9479
RightArm  -13.5018 -1.16915 30.2179
RightForeArm  -10.2555 11.538 6.76398
RightHand  -6.43748 16.8167 -33.1726
LeftUpLeg  -10.4595 2.30528 6.01094
LeftLeg  67.6366 0.250356 1.45242
LeftFoot  17.6333 0.675918 -3.04376
LeftToes  1.06246e-005 4.65854e-005 -8.18502e-006
157
root  2.1008 38.8437 -3.79255 -127.859 84.5891 -123.838
RightUpLeg  -14.3302 -21.044 4.54021
RightLeg  29.2644 -2.73898 -1.89025
RightFoot  -9.20434 0.0271635 -4.72613
RightToes  0.000482159 0.542163 -0.142577
Spine  15.942 -1.1592 18.7599
Spine1  12.4246 2.00818 0.81633
HEad  7.67023 -10.2072 -1.17294
LeftShoulder1  8.39536 -12.8114 -44.8337
LeftArm  -2.93362 16.2173 -32.9478
LeftForeArm  36.5162 -31.6675 -4.90543
LeftHand  -0.25398 0.0180481 5.50724
RightShoulder  5.59705 9.446 37.2063
RightArm  -13.3313 2.04067 29.5238
RightForeArm  -9.75932 12.0938 6.7275
RightHand  -6.2981 16.5104 -32.9274
LeftUpLeg  -15.8072 1.91269 4.71685
LeftLeg  68.1173 -0.075625 0.564017
LeftFoot  13.9582 0.554772 -2.85567
LeftToes  1.06246e-005 4.65854e-005 -8.18502e-006
158
root  3.68568 39.1165 -3.55486 -134.844 85.0525 -130.899
RightUpLeg  -10.3999 -21.582 2.9195
RightLeg  27.5227 -2.44176 -1.09223
RightFoot  -11.1216 -0.0683911 -3.9426
RightToes  0.000482159 0.542163 -0.142577
Spine  15.8478 -0.329644 18.455
Spine1  12.5871 2.83957 0.284688
HEad  7.96706 -11.7369 -0.612923
LeftShoulder1  8.42571 -12.9638 -44.5682
LeftArm  -3.17292 16.774 -32.968
LeftForeArm  36.0523 -31.9182 -4.98933
LeftHand  -0.25398 0.0180481 5.50724
RightShoulder  5.55961 9.42711 36.9863
RightArm  -12.8223 4.8812 29.3462
RightForeArm  -9.8762 13.1962 6.65954
RightHand  -6.19298 16.3223 -32.6781
LeftUpLeg  -20.0387 1.92181 3.24037
LeftLeg  64.7496 0.548928 1.87917
LeftFoot  11.1209 0.334573 -2.00963
LeftToes  1.06246e-005 4.65854e-005 -8.18502e-006
159
root  5.23174 39.3998 -3.3317 -141.585 85.7057 -137.661
RightUpLeg  -6.30718 -20.1322 1.12162
RightLeg  25.2465 -3.94949 -0.433596
RightFoot  -12.0901 -0.107443 -3.80596
RightToes  0.000482159 0.542163 -0.142577
Spine  16.0984 0.520791 18.1137
Spine1  12.5121 3.80492 -0.687764
HEad  8.17151 -13.1521 -0.1513
LeftShoulder1  8.48807 -13.1278 -44.4505
LeftArm  -3.37028 17.1578 -32.6764
LeftForeArm  35.7138 -31.6506 -4.9447
LeftHand  -0.25398 0.0180481 5.50724
RightShoulder  5.47113 9.3848 36.4568
RightArm  -11.5877 7.33538 29.4502
RightForeArm  -10.9735 14.7618 6.5763
RightHand  -6.29866 16.5185 -32.9177
LeftUpLeg  -22.6203 2.48906 1.77611
LeftLeg  57.6117 1.8276 3.60571
LeftFoot  7.82607 0.0655087 -0.682452
LeftToes  1.06246e-005 4.65854e-005 -8.18502e-006
